{"title":"[GR HARDSUBBED] Zorro.1975.DVDRip.720p.x264-GRRiPS","uid":8658547,"size":732877380,"categoryP":"video","categoryS":"movies_dvdr","magnet":"?xt=urn:btih:9b9ebcff3503034283137070b22b6c3ddacc3232&amp;dn=%5BGR+HARDSUBBED%5D+Zorro.1975.DVDRip.720p.x264-GRRiPS&amp;tr=udp%3A%2F%2Ftracker.openbittorrent.com%3A80&amp;tr=udp%3A%2F%2Fopen.demonii.com%3A1337&amp;tr=udp%3A%2F%2Ftracker.coppersurfer.tk%3A6969&amp;tr=udp%3A%2F%2Fexodus.desync.com%3A6969","seeders":1,"leechers":1,"uploader":"GRRiPS","files":-1,"time":1373268287,"description":"----------------------------------------------------------------------------\n** PLEASE BE ADVICED: DO NOT DOWNLOAD THIS IF YOU CAN'T SPEAK/READ GREEK **\n----------------------------------------------------------------------------\n\n------------------------------------------------------\n** The movie contain GREEK -HARDSUBBED- subtitles! **\n------------------------------------------------------\n\nGeneral\nComplete name                            : Zorro.1975.DVDRip.720p.x264-GRRiPS.mp4\nFormat                                   : MPEG-4\nFormat profile                           : Base Media\nCodec ID                                 : isom\nFile size                                : 699 MiB\nDuration                                 : 1h 52mn\nOverall bit rate mode                    : Variable\nOverall bit rate                         : 869 Kbps\n\nVideo\nID                                       : 1\nFormat                                   : AVC\nFormat/Info                              : Advanced Video Codec\nFormat profile                           : &lt;a class=&quot;__cf_email__&quot; href=&quot;/cdn-cgi/l/email-protection&quot; data-cfemail=&quot;5c14353b341c1068726c&quot;&gt;[email&amp;#160;protected]&lt;/a&gt;&lt;script cf-hash='f9e31' type=&quot;text/javascript&quot;&gt;\n/* &lt;![CDATA[ */!function(){try{var t=&quot;currentScript&quot;in document?document.currentScript:function(){for(var t=document.getElementsByTagName(&quot;script&quot;),e=t.length;e--;)if(t[e].getAttribute(&quot;cf-hash&quot;))return t[e]}();if(t&amp;&amp;t.previousSibling){var e,r,n,i,c=t.previousSibling,a=c.getAttribute(&quot;data-cfemail&quot;);if(a){for(e=&quot;&quot;,r=parseInt(a.substr(0,2),16),n=2;a.length-n;n+=2)i=parseInt(a.substr(n,2),16)^r,e+=String.fromCharCode(i);e=document.createTextNode(e),c.parentNode.replaceChild(e,c)}}}catch(u){}}();/* ]]&gt; */&lt;/script&gt;\nFormat settings, CABAC                   : Yes\nFormat settings, ReFrames                : 3 frames\nCodec ID                                 : avc1\nCodec ID/Info                            : Advanced Video Coding\nDuration                                 : 1h 52mn\nBit rate mode                            : Variable\nBit rate                                 : 738 Kbps\nMaximum bit rate                         : 25.0 Mbps\nWidth                                    : 1 280 pixels\nHeight                                   : 720 pixels\nDisplay aspect ratio                     : 16:9\nFrame rate mode                          : Constant\nFrame rate                               : 25.000 fps\nColor space                              : YUV\nChroma subsampling                       : 4:2:0\nBit depth                                : 8 bits\nScan type                                : Progressive\nBits/(Pixel*Frame)                       : 0.032\nStream size                              : 593 MiB (85%)\nTitle                                    : Zorro\nWriting library                          : x264 core 129 r2245 bc13772\n\nAudio\nID                                       : 2\nFormat                                   : AAC\nFormat/Info                              : Advanced Audio Codec\nFormat profile                           : LC\nCodec ID                                 : 40\nDuration                                 : 1h 52mn\nBit rate mode                            : Variable\nBit rate                                 : 128 Kbps\nMaximum bit rate                         : 133 Kbps\nChannel(s)                               : 2 channels\nChannel positions                        : Front: L R\nSampling rate                            : 48.0 KHz\nCompression mode                         : Lossy\nStream size                              : 103 MiB (15%)\n\nDIKO MOU RIP.\n\nFULL SCREENSHOTS: &lt;a href=&quot;\nhttps://bayimg.com/lAnDjAaEk&quot; rel=&quot;nofollow&quot; target=&quot;_NEW&quot;&gt;\nhttps://bayimg.com/lAnDjAaEk&lt;/a&gt;\n\nKALH PROBOLH KAI S E E D ! ! ! !\n\n-------------------------------------------------------\n|PERISSOTERA/MORE: https://thepiratebay.se/user/GRRiPS|\n-------------------------------------------------------\t\n\n//////////////////////////////////////////////////////\n/         SUNTOMA KAI SE DIKO MAS BLOG! ;)           /\n//////////////////////////////////////////////////////","torrent":{"xt":"urn:btih:9b9ebcff3503034283137070b22b6c3ddacc3232","amp;dn":"%5BGR+HARDSUBBED%5D+Zorro.1975.DVDRip.720p.x264-GRRiPS","amp;tr":["udp%3A%2F%2Ftracker.openbittorrent.com%3A80","udp%3A%2F%2Fopen.demonii.com%3A1337","udp%3A%2F%2Ftracker.coppersurfer.tk%3A6969","udp%3A%2F%2Fexodus.desync.com%3A6969"],"infoHash":"9b9ebcff3503034283137070b22b6c3ddacc3232","infoHashBuffer":{"type":"Buffer","data":[155,158,188,255,53,3,3,66,131,19,112,112,178,43,108,61,218,204,50,50]},"announce":[],"urlList":[]}}